<mxfile host="app.diagrams.net" modified="2023-11-16T07:44:26.206Z" agent="Mozilla/5.0 (Windows NT 10.0; Win64; x64; rv:109.0) Gecko/20100101 Firefox/119.0" etag="q5IU89IR43JaAuDe-26H" version="22.1.1" type="device">
  <diagram name="Seite-1" id="QlTR5V2EmfCpZYi8ZqLV">
    <mxGraphModel dx="710" dy="377" grid="1" gridSize="10" guides="1" tooltips="1" connect="1" arrows="1" fold="1" page="1" pageScale="1" pageWidth="827" pageHeight="1169" math="0" shadow="0">
      <root>
        <mxCell id="0" />
        <mxCell id="1" parent="0" />
        <mxCell id="fE4480hJTkoFcGhiYu-_-1" value="pünktchen" style="html=1;fontStyle=4" vertex="1" parent="1">
          <mxGeometry x="40" y="40" width="110" height="30" as="geometry" />
        </mxCell>
        <mxCell id="fE4480hJTkoFcGhiYu-_-2" value="dieKatze" style="html=1;fontStyle=4" vertex="1" parent="1">
          <mxGeometry x="40" y="100" width="110" height="30" as="geometry" />
        </mxCell>
        <mxCell id="fE4480hJTkoFcGhiYu-_-3" value="pünktchen : Katze" style="html=1;fontStyle=4" vertex="1" parent="1">
          <mxGeometry x="250" y="40" width="140" height="30" as="geometry" />
        </mxCell>
        <mxCell id="fE4480hJTkoFcGhiYu-_-4" value="dieKatze : Meerschweinchen" style="html=1;fontStyle=4" vertex="1" parent="1">
          <mxGeometry x="250" y="100" width="170" height="30" as="geometry" />
        </mxCell>
        <mxCell id="fE4480hJTkoFcGhiYu-_-5" value="" style="endArrow=none;html=1;rounded=0;strokeColor=#006666;strokeWidth=3;" edge="1" parent="1">
          <mxGeometry width="50" height="50" relative="1" as="geometry">
            <mxPoint x="200" y="150" as="sourcePoint" />
            <mxPoint x="200" y="20" as="targetPoint" />
          </mxGeometry>
        </mxCell>
      </root>
    </mxGraphModel>
  </diagram>
</mxfile>
